<svg width="277" height="59" viewBox="0 0 277 59" fill="none" xmlns="http://www.w3.org/2000/svg">
<path d="M69.292 34.812C69.7587 34.028 70.3747 33.4213 71.14 32.992C71.924 32.544 72.848 32.32 73.912 32.32V35.624H73.1C71.8493 35.624 70.8973 35.9413 70.244 36.576C69.6093 37.2107 69.292 38.312 69.292 39.88V48H66.1V32.572H69.292V34.812ZM75.7821 40.272C75.7821 38.6853 76.0994 37.2947 76.7341 36.1C77.3874 34.8867 78.2834 33.9533 79.4221 33.3C80.5608 32.6467 81.8674 32.32 83.3421 32.32C85.2088 32.32 86.7488 32.768 87.9621 33.664C89.1941 34.5413 90.0248 35.8013 90.4541 37.444H87.0101C86.7301 36.6787 86.2821 36.0813 85.6661 35.652C85.0501 35.2227 84.2754 35.008 83.3421 35.008C82.0354 35.008 80.9901 35.4747 80.2061 36.408C79.4408 37.3227 79.0581 38.6107 79.0581 40.272C79.0581 41.9333 79.4408 43.2307 80.2061 44.164C80.9901 45.0973 82.0354 45.564 83.3421 45.564C85.1901 45.564 86.4128 44.752 87.0101 43.128H90.4541C90.0061 44.696 89.1661 45.9467 87.9341 46.88C86.7021 47.7947 85.1714 48.252 83.3421 48.252C81.8674 48.252 80.5608 47.9253 79.4221 47.272C78.2834 46.6 77.3874 45.6667 76.7341 44.472C76.0994 43.2587 75.7821 41.8587 75.7821 40.272ZM92.5712 40.216C92.5712 38.6667 92.8885 37.2947 93.5232 36.1C94.1765 34.9053 95.0538 33.9813 96.1552 33.328C97.2752 32.656 98.5072 32.32 99.8512 32.32C101.064 32.32 102.119 32.5627 103.015 33.048C103.93 33.5147 104.658 34.1027 105.199 34.812V32.572H108.419V48H105.199V45.704C104.658 46.432 103.92 47.0387 102.987 47.524C102.054 48.0093 100.99 48.252 99.7952 48.252C98.4698 48.252 97.2565 47.916 96.1552 47.244C95.0538 46.5533 94.1765 45.6013 93.5232 44.388C92.8885 43.156 92.5712 41.7653 92.5712 40.216ZM105.199 40.272C105.199 39.208 104.975 38.284 104.527 37.5C104.098 36.716 103.528 36.1187 102.819 35.708C102.11 35.2973 101.344 35.092 100.523 35.092C99.7018 35.092 98.9365 35.2973 98.2272 35.708C97.5178 36.1 96.9392 36.688 96.4912 37.472C96.0618 38.2373 95.8472 39.152 95.8472 40.216C95.8472 41.28 96.0618 42.2133 96.4912 43.016C96.9392 43.8187 97.5178 44.4347 98.2272 44.864C98.9552 45.2747 99.7205 45.48 100.523 45.48C101.344 45.48 102.11 45.2747 102.819 44.864C103.528 44.4533 104.098 43.856 104.527 43.072C104.975 42.2693 105.199 41.336 105.199 40.272ZM120.396 32.32C121.609 32.32 122.692 32.572 123.644 33.076C124.614 33.58 125.37 34.3267 125.912 35.316C126.453 36.3053 126.724 37.5 126.724 38.9V48H123.56V39.376C123.56 37.9947 123.214 36.94 122.524 36.212C121.833 35.4653 120.89 35.092 119.696 35.092C118.501 35.092 117.549 35.4653 116.84 36.212C116.149 36.94 115.804 37.9947 115.804 39.376V48H112.612V32.572H115.804V34.336C116.326 33.7013 116.989 33.2067 117.792 32.852C118.613 32.4973 119.481 32.32 120.396 32.32ZM144.935 39.908C144.935 40.4867 144.898 41.0093 144.823 41.476H133.035C133.129 42.708 133.586 43.6973 134.407 44.444C135.229 45.1907 136.237 45.564 137.431 45.564C139.149 45.564 140.362 44.8453 141.071 43.408H144.515C144.049 44.8267 143.199 45.9933 141.967 46.908C140.754 47.804 139.242 48.252 137.431 48.252C135.957 48.252 134.631 47.9253 133.455 47.272C132.298 46.6 131.383 45.6667 130.711 44.472C130.058 43.2587 129.731 41.8587 129.731 40.272C129.731 38.6853 130.049 37.2947 130.683 36.1C131.337 34.8867 132.242 33.9533 133.399 33.3C134.575 32.6467 135.919 32.32 137.431 32.32C138.887 32.32 140.185 32.6373 141.323 33.272C142.462 33.9067 143.349 34.8027 143.983 35.96C144.618 37.0987 144.935 38.4147 144.935 39.908ZM141.603 38.9C141.585 37.724 141.165 36.7813 140.343 36.072C139.522 35.3627 138.505 35.008 137.291 35.008C136.19 35.008 135.247 35.3627 134.463 36.072C133.679 36.7627 133.213 37.7053 133.063 38.9H141.603Z" fill="#75057F"/>
<path d="M168.958 34.336C168.958 35.3253 168.725 36.2587 168.258 37.136C167.791 38.0133 167.045 38.732 166.018 39.292C164.991 39.8333 163.675 40.104 162.07 40.104H158.542V48H155.35V28.54H162.07C163.563 28.54 164.823 28.8013 165.85 29.324C166.895 29.828 167.67 30.5187 168.174 31.396C168.697 32.2733 168.958 33.2533 168.958 34.336ZM162.07 37.5C163.283 37.5 164.189 37.2293 164.786 36.688C165.383 36.128 165.682 35.344 165.682 34.336C165.682 32.208 164.478 31.144 162.07 31.144H158.542V37.5H162.07ZM175.194 34.812C175.661 34.028 176.277 33.4213 177.042 32.992C177.826 32.544 178.75 32.32 179.814 32.32V35.624H179.002C177.752 35.624 176.8 35.9413 176.146 36.576C175.512 37.2107 175.194 38.312 175.194 39.88V48H172.002V32.572H175.194V34.812ZM189.44 48.252C187.984 48.252 186.668 47.9253 185.492 47.272C184.316 46.6 183.392 45.6667 182.72 44.472C182.048 43.2587 181.712 41.8587 181.712 40.272C181.712 38.704 182.058 37.3133 182.748 36.1C183.439 34.8867 184.382 33.9533 185.576 33.3C186.771 32.6467 188.106 32.32 189.58 32.32C191.055 32.32 192.39 32.6467 193.584 33.3C194.779 33.9533 195.722 34.8867 196.412 36.1C197.103 37.3133 197.448 38.704 197.448 40.272C197.448 41.84 197.094 43.2307 196.384 44.444C195.675 45.6573 194.704 46.6 193.472 47.272C192.259 47.9253 190.915 48.252 189.44 48.252ZM189.44 45.48C190.262 45.48 191.027 45.284 191.736 44.892C192.464 44.5 193.052 43.912 193.5 43.128C193.948 42.344 194.172 41.392 194.172 40.272C194.172 39.152 193.958 38.2093 193.528 37.444C193.099 36.66 192.53 36.072 191.82 35.68C191.111 35.288 190.346 35.092 189.524 35.092C188.703 35.092 187.938 35.288 187.228 35.68C186.538 36.072 185.987 36.66 185.576 37.444C185.166 38.2093 184.96 39.152 184.96 40.272C184.96 41.9333 185.38 43.2213 186.22 44.136C187.079 45.032 188.152 45.48 189.44 45.48ZM202.228 30.528C201.649 30.528 201.164 30.332 200.772 29.94C200.38 29.548 200.184 29.0627 200.184 28.484C200.184 27.9053 200.38 27.42 200.772 27.028C201.164 26.636 201.649 26.44 202.228 26.44C202.788 26.44 203.264 26.636 203.656 27.028C204.048 27.42 204.244 27.9053 204.244 28.484C204.244 29.0627 204.048 29.548 203.656 29.94C203.264 30.332 202.788 30.528 202.228 30.528ZM203.796 51.024C203.796 52.536 203.413 53.628 202.648 54.3C201.901 54.9907 200.809 55.336 199.372 55.336H197.72V52.648H198.812C199.465 52.648 199.923 52.5173 200.184 52.256C200.464 52.0133 200.604 51.6027 200.604 51.024V32.572H203.796V51.024ZM222.127 39.908C222.127 40.4867 222.089 41.0093 222.015 41.476H210.227C210.32 42.708 210.777 43.6973 211.599 44.444C212.42 45.1907 213.428 45.564 214.623 45.564C216.34 45.564 217.553 44.8453 218.263 43.408H221.707C221.24 44.8267 220.391 45.9933 219.159 46.908C217.945 47.804 216.433 48.252 214.623 48.252C213.148 48.252 211.823 47.9253 210.647 47.272C209.489 46.6 208.575 45.6667 207.903 44.472C207.249 43.2587 206.923 41.8587 206.923 40.272C206.923 38.6853 207.24 37.2947 207.875 36.1C208.528 34.8867 209.433 33.9533 210.591 33.3C211.767 32.6467 213.111 32.32 214.623 32.32C216.079 32.32 217.376 32.6373 218.515 33.272C219.653 33.9067 220.54 34.8027 221.175 35.96C221.809 37.0987 222.127 38.4147 222.127 39.908ZM218.795 38.9C218.776 37.724 218.356 36.7813 217.535 36.072C216.713 35.3627 215.696 35.008 214.483 35.008C213.381 35.008 212.439 35.3627 211.655 36.072C210.871 36.7627 210.404 37.7053 210.255 38.9H218.795ZM224.204 40.272C224.204 38.6853 224.521 37.2947 225.156 36.1C225.809 34.8867 226.705 33.9533 227.844 33.3C228.983 32.6467 230.289 32.32 231.764 32.32C233.631 32.32 235.171 32.768 236.384 33.664C237.616 34.5413 238.447 35.8013 238.876 37.444H235.432C235.152 36.6787 234.704 36.0813 234.088 35.652C233.472 35.2227 232.697 35.008 231.764 35.008C230.457 35.008 229.412 35.4747 228.628 36.408C227.863 37.3227 227.48 38.6107 227.48 40.272C227.48 41.9333 227.863 43.2307 228.628 44.164C229.412 45.0973 230.457 45.564 231.764 45.564C233.612 45.564 234.835 44.752 235.432 43.128H238.876C238.428 44.696 237.588 45.9467 236.356 46.88C235.124 47.7947 233.593 48.252 231.764 48.252C230.289 48.252 228.983 47.9253 227.844 47.272C226.705 46.6 225.809 45.6667 225.156 44.472C224.521 43.2587 224.204 41.8587 224.204 40.272ZM245.781 35.176V43.716C245.781 44.2947 245.912 44.7147 246.173 44.976C246.453 45.2187 246.92 45.34 247.573 45.34H249.533V48H247.013C245.576 48 244.474 47.664 243.709 46.992C242.944 46.32 242.561 45.228 242.561 43.716V35.176H240.741V32.572H242.561V28.736H245.781V32.572H249.533V35.176H245.781ZM258.075 48.252C256.862 48.252 255.77 48.0373 254.799 47.608C253.847 47.16 253.091 46.5627 252.531 45.816C251.971 45.0507 251.672 44.2013 251.635 43.268H254.939C254.995 43.9213 255.303 44.472 255.863 44.92C256.442 45.3493 257.16 45.564 258.019 45.564C258.915 45.564 259.606 45.396 260.091 45.06C260.595 44.7053 260.847 44.2573 260.847 43.716C260.847 43.1373 260.567 42.708 260.007 42.428C259.466 42.148 258.598 41.84 257.403 41.504C256.246 41.1867 255.303 40.8787 254.575 40.58C253.847 40.2813 253.212 39.824 252.671 39.208C252.148 38.592 251.887 37.78 251.887 36.772C251.887 35.9507 252.13 35.204 252.615 34.532C253.1 33.8413 253.791 33.3 254.687 32.908C255.602 32.516 256.647 32.32 257.823 32.32C259.578 32.32 260.987 32.768 262.051 33.664C263.134 34.5413 263.712 35.7453 263.787 37.276H260.595C260.539 36.5853 260.259 36.0347 259.755 35.624C259.251 35.2133 258.57 35.008 257.711 35.008C256.871 35.008 256.227 35.1667 255.779 35.484C255.331 35.8013 255.107 36.2213 255.107 36.744C255.107 37.1547 255.256 37.5 255.555 37.78C255.854 38.06 256.218 38.284 256.647 38.452C257.076 38.6013 257.711 38.7973 258.551 39.04C259.671 39.3387 260.586 39.6467 261.295 39.964C262.023 40.2627 262.648 40.7107 263.171 41.308C263.694 41.9053 263.964 42.6987 263.983 43.688C263.983 44.5653 263.74 45.3493 263.255 46.04C262.77 46.7307 262.079 47.272 261.183 47.664C260.306 48.056 259.27 48.252 258.075 48.252Z" fill="black"/>
<rect width="57.5928" height="5" rx="2" transform="matrix(0.518419 -0.855127 0.910353 0.413832 2.31252 49.8525)" fill="#75057F"/>
<path d="M0.856202 30.9537C0.383335 29.9555 0.850557 28.8663 1.89977 28.521L29.3682 19.4815L56.8366 10.442C57.8858 10.0967 59.1197 10.626 59.5926 11.6243L60.0207 12.528C60.4935 13.5262 60.0263 14.6154 58.9771 14.9606L4.04028 33.0397C2.99106 33.385 1.75717 32.8557 1.2843 31.8574L0.856202 30.9537Z" fill="#75057F"/>
<rect width="57.626" height="5" rx="2.5" transform="matrix(-0.520886 -0.853626 0.902145 -0.431433 60.0165 51.3482)" fill="#75057F"/>
</svg>
